<svg width="16" height="16" viewBox="0 0 18 18" fill="none" xmlns="http://www.w3.org/2000/svg">
<path d="M12.6334 10.6665C12.7001 10.1165 12.7501 9.5665 12.7501 8.99984C12.7501 8.43317 12.7001 7.88317 12.6334 7.33317H15.4501C15.5834 7.8665 15.6667 8.42484 15.6667 8.99984C15.6667 9.57484 15.5834 10.1332 15.4501 10.6665H12.6334ZM11.1584 15.2998C11.6584 14.3748 12.0417 13.3748 12.3084 12.3332H14.7667C13.9667 13.7082 12.6917 14.7748 11.1584 15.2998ZM10.9501 10.6665H7.05008C6.96675 10.1165 6.91675 9.5665 6.91675 8.99984C6.91675 8.43317 6.96675 7.87484 7.05008 7.33317H10.9501C11.0251 7.87484 11.0834 8.43317 11.0834 8.99984C11.0834 9.5665 11.0251 10.1165 10.9501 10.6665ZM9.00008 15.6332C8.30841 14.6332 7.75008 13.5248 7.40842 12.3332H10.5917C10.2501 13.5248 9.69175 14.6332 9.00008 15.6332ZM5.66675 5.6665H3.23341C4.02508 4.28317 5.30841 3.2165 6.83341 2.69984C6.33341 3.62484 5.95842 4.62484 5.66675 5.6665ZM3.23341 12.3332H5.66675C5.95842 13.3748 6.33341 14.3748 6.83341 15.2998C5.30841 14.7748 4.02508 13.7082 3.23341 12.3332ZM2.55008 10.6665C2.41675 10.1332 2.33341 9.57484 2.33341 8.99984C2.33341 8.42484 2.41675 7.8665 2.55008 7.33317H5.36675C5.30008 7.88317 5.25008 8.43317 5.25008 8.99984C5.25008 9.5665 5.30008 10.1165 5.36675 10.6665H2.55008ZM9.00008 2.35817C9.69175 3.35817 10.2501 4.47484 10.5917 5.6665H7.40842C7.75008 4.47484 8.30841 3.35817 9.00008 2.35817ZM14.7667 5.6665H12.3084C12.0417 4.62484 11.6584 3.62484 11.1584 2.69984C12.6917 3.22484 13.9667 4.28317 14.7667 5.6665ZM9.00008 0.666504C4.39175 0.666504 0.666748 4.4165 0.666748 8.99984C0.666748 11.21 1.54472 13.3296 3.10752 14.8924C3.88135 15.6662 4.80001 16.28 5.81105 16.6988C6.8221 17.1176 7.90573 17.3332 9.00008 17.3332C11.2102 17.3332 13.3298 16.4552 14.8926 14.8924C16.4554 13.3296 17.3334 11.21 17.3334 8.99984C17.3334 7.90549 17.1179 6.82186 16.6991 5.81081C16.2803 4.79976 15.6665 3.8811 14.8926 3.10728C14.1188 2.33346 13.2002 1.71963 12.1891 1.30084C11.1781 0.882052 10.0944 0.666504 9.00008 0.666504Z" fill="#ADBFDF"/>
</svg>
