<svg width="24" height="24" viewBox="0 0 24 24" fill="none" xmlns="http://www.w3.org/2000/svg">
<g clip-path="url(#clip0_60_3294)">
<circle cx="12" cy="12" r="9" fill="#002CFB"/>
<path d="M11.9998 2C6.47976 2 1.99976 6.48 1.99976 12C1.99976 17.52 6.47976 22 11.9998 22C17.5198 22 21.9998 17.52 21.9998 12C21.9998 6.48 17.5198 2 11.9998 2ZM12.9998 19H10.9998V17H12.9998V19ZM15.0698 11.25L14.1698 12.17C13.4498 12.9 12.9998 13.5 12.9998 15H10.9998V14.5C10.9998 13.4 11.4498 12.4 12.1698 11.67L13.4098 10.41C13.7798 10.05 13.9998 9.55 13.9998 9C13.9998 7.9 13.0998 7 11.9998 7C10.8998 7 9.99976 7.9 9.99976 9H7.99976C7.99976 6.79 9.78976 5 11.9998 5C14.2098 5 15.9998 6.79 15.9998 9C15.9998 9.88 15.6398 10.68 15.0698 11.25Z" fill="#F1F4F9"/>
</g>
<defs>
<clipPath id="clip0_60_3294">
<rect width="24" height="24" fill="white"/>
</clipPath>
</defs>
</svg>
